PathFileType	4	(X/Y/Z)	/Users/itak/Documents/Research/Walk-IL/dataset/trc/00411_00012.trc
DataRate	CameraRate	NumFrames	NumMarkers	Units	OrigDataRate	OrigDataStartFrame	OrigNumFrames
100.000000	100.000000	4	53	mm	100.000000	456	608
Frame#	Time	RPSI			LPSI			L3			STRN			T10			C7			CLAV			RBAK			LBAK			LSHO			LUPA			LAEL			LAOL			LWTS			LWPS			LFRA			LIFD			LHPS			RSHO			RUPA			RAEL			RAOL			RWTS			RWPS			RFRA			RIFD			RHPS			RBHD			LFHD			RFHD			LBHD			LHIP			RHIP			RASI			LASI			LKNE			LTHI			LANK			LTIP			LTOE			LMT5			LHEE			RKNE			RTHI			RANK			RTIP			RTOE			RMT1			RMT5			RHEE			LHTS			RHTS			LMT1			
		X1	Y1	Z1	X2	Y2	Z2	X3	Y3	Z3	X4	Y4	Z4	X5	Y5	Z5	X6	Y6	Z6	X7	Y7	Z7	X8	Y8	Z8	X9	Y9	Z9	X10	Y10	Z10	X11	Y11	Z11	X12	Y12	Z12	X13	Y13	Z13	X14	Y14	Z14	X15	Y15	Z15	X16	Y16	Z16	X17	Y17	Z17	X18	Y18	Z18	X19	Y19	Z19	X20	Y20	Z20	X21	Y21	Z21	X22	Y22	Z22	X23	Y23	Z23	X24	Y24	Z24	X25	Y25	Z25	X26	Y26	Z26	X27	Y27	Z27	X28	Y28	Z28	X29	Y29	Z29	X30	Y30	Z30	X31	Y31	Z31	X32	Y32	Z32	X33	Y33	Z33	X34	Y34	Z34	X35	Y35	Z35	X36	Y36	Z36	X37	Y37	Z37	X38	Y38	Z38	X39	Y39	Z39	X40	Y40	Z40	X41	Y41	Z41	X42	Y42	Z42	X43	Y43	Z43	X44	Y44	Z44	X45	Y45	Z45	X46	Y46	Z46	X47	Y47	Z47	X48	Y48	Z48	X49	Y49	Z49	X50	Y50	Z50	X51	Y51	Z51	X52	Y52	Z52	X53	Y53	Z53	

457	4.56	1106.205810546875	959.9840087890625	-205.3712310791016	974.500244140625	940.8294677734375	-195.3215179443359	1040.575439453125	1028.12939453125	-195.6282348632812	1033.92626953125	1199.536499023438	-418.9566040039062	1035.28515625	1131.152099609375	-180.5085754394531	1025.511108398438	1380.915771484375	-193.6071014404297	1034.502197265625	1313.024169921875	-355.1839294433594	1090.853271484375	1232.134643554688	-160.92431640625	922.0130004882812	1344.0048828125	-185.1211547851562	874.0087280273438	1366.14599609375	-273.1379699707031	800.0220336914062	1250.4130859375	-259.6732788085938	771.2955932617188	1055.84033203125	-289.7888488769531	826.6898193359375	1029.89697265625	-228.0113067626953	818.8287353515625	835.7256469726562	-368.2843627929688	745.1105346679688	830.6495971679688	-329.5066528320312	758.3846435546875	952.2086181640625	-306.4189453125	800.5685424804688	655.399169921875	-349.4041442871094	749.3153686523438	742.661865234375	-333.4971618652344	1184.423095703125	1364.412841796875	-248.7159271240234	1242.416870117188	1299.979125976562	-235.7355804443359	1288.021362304688	1040.287719726562	-242.6500701904297	1195.430419921875	1027.920288085938	-228.3855743408203	1275.042114257812	839.423583984375	-392.1216430664062	1331.967163085938	826.0010375976562	-346.7637634277344	1307.973388671875	977.6763916015625	-271.8307800292969	1288.56982421875	668.568359375	-411.0600891113281	1337.623046875	739.3001098632812	-362.0689697265625	1121.230102539062	1573.57080078125	-225.4320983886719	968.9536743164062	1583.521484375	-354.5304870605469	1092.539916992188	1591.955322265625	-355.5601806640625	962.1298217773438	1559.88037109375	-207.5181121826172	855.7489624023438	936.5887451171875	-274.2904968261719	1215.356689453125	953.1781005859375	-305.0750122070312	1147.944580078125	962.2492065429688	-427.7517395019531	885.5390014648438	943.5738525390625	-393.8703308105469	859.3912963867188	456.7897644042969	-412.1627807617188	856.3212280273438	590.266845703125	-383.6486206054688	866.06005859375	180.9184875488281	-51.99097061157227	849.7232666015625	305.408447265625	-232.3822631835938	934.8424072265625	36.41716384887695	-196.9461975097656	857.928955078125	84.69073486328125	-134.4026031494141	920.7887573242188	208.9476776123047	-24.81167602539062	1181.375732421875	470.1585693359375	-439.7201843261719	1207.515747070312	734.7549438476562	-417.4012451171875	1139.882568359375	41.50363922119141	-438.1483764648438	1165.08935546875	346.2559814453125	-465.4007568359375	1069.589233398438	35.39728927612305	-615.1493530273438	1042.2373046875	39.54611968994141	-539.979248046875	1136.04541015625	8.852007865905762	-528.5193481445312	1086.15673828125	27.92553520202637	-365.7709350585938	795.8644409179688	736.4910888671875	-378.42236328125	1302.55615234375	739.1513671875	-422.1007690429688	962.5349731445312	91.38516235351562	-142.6995544433594	
458	4.57	1108.900512695312	960.6212158203125	-210.6575775146484	977.0338134765625	941.4291381835938	-200.3533325195312	1043.601928710938	1029.5361328125	-200.2283172607422	1035.953491210938	1200.486083984375	-424.3363342285156	1038.6181640625	1132.06103515625	-185.9499816894531	1028.753295898438	1381.919677734375	-199.1233978271484	1036.822387695312	1313.953247070312	-360.5898132324219	1094.330078125	1233.072143554688	-166.7374877929688	925.307373046875	1345.059692382812	-190.0767974853516	876.7512817382812	1367.107055664062	-277.8154296875	802.748291015625	1251.65185546875	-263.0798950195312	773.3533325195312	1056.825805664062	-290.8542175292969	829.2157592773438	1031.333984375	-229.4247131347656	820.0692138671875	835.8507690429688	-367.3916931152344	746.7069091796875	831.1527099609375	-327.9134521484375	760.1354370117188	953.00634765625	-306.3123779296875	802.2276611328125	655.7633666992188	-347.2920227050781	750.9171142578125	743.072265625	-331.32177734375	1187.327026367188	1365.308227539062	-254.9807281494141	1245.550048828125	1300.905517578125	-242.6692504882812	1292.463623046875	1041.458374023438	-252.4087677001953	1200.031982421875	1028.363647460938	-237.370849609375	1279.25927734375	843.0723876953125	-405.0558776855469	1336.5927734375	829.294677734375	-360.3771057128906	1312.423461914062	979.3985595703125	-282.6785583496094	1294.192260742188	672.7511596679688	-427.5234985351562	1342.990356445312	743.153564453125	-377.5436706542969	1124.561279296875	1574.4130859375	-231.9117126464844	971.3170776367188	1584.3916015625	-359.9060974121094	1094.963012695312	1592.766357421875	-361.8966064453125	965.4505615234375	1560.876098632812	-212.8084869384766	857.9973754882812	937.4757690429688	-279.7982177734375	1217.685180664062	953.9146118164062	-310.8835144042969	1150.306030273438	963.108642578125	-433.24267578125	888.0502319335938	944.9263916015625	-398.7054443359375	860.104248046875	459.4651489257812	-422.585693359375	858.129638671875	592.1094360351562	-392.053466796875	869.851318359375	179.6157531738281	-65.68391418457031	851.5416259765625	306.4700012207031	-244.3210144042969	933.0586547851562	37.76691818237305	-216.1307830810547	858.8087158203125	86.05097961425781	-150.7040100097656	925.7435913085938	205.7924499511719	-38.71770095825195	1182.458740234375	469.8847961425781	-442.1869201660156	1209.023315429688	735.0164184570312	-422.4279174804688	1139.891967773438	41.50923538208008	-438.1325378417969	1165.884521484375	346.0467529296875	-467.0467529296875	1069.6708984375	35.3592529296875	-615.2154541015625	1042.274780273438	39.58753204345703	-540.0310668945312	1136.208740234375	9.266091346740723	-528.4246826171875	1086.086547851562	28.02730751037598	-365.7652587890625	797.015625	736.714111328125	-376.6864624023438	1307.469360351562	743.5094604492188	-437.17822265625	962.6016235351562	90.52162933349609	-160.7861785888672	
459	4.58	1111.321166992188	961.1914672851562	-215.7791442871094	979.2918701171875	942.0315551757812	-205.3218688964844	1046.325317382812	1030.818115234375	-205.018310546875	1037.988891601562	1201.416748046875	-429.5307312011719	1041.7138671875	1132.92431640625	-191.1054229736328	1031.916259765625	1382.879272460938	-204.4669342041016	1039.120727539062	1314.8837890625	-365.823486328125	1097.65625	1233.985595703125	-172.3081207275391	928.5508422851562	1346.097412109375	-194.8662872314453	879.4649658203125	1368.069580078125	-282.3412475585938	805.443603515625	1252.91162109375	-266.348388671875	775.455322265625	1057.867919921875	-291.729248046875	831.8436279296875	1032.861083984375	-230.6276702880859	821.2172241210938	836.161865234375	-366.6420288085938	748.3646240234375	831.709228515625	-326.2031555175781	761.9138793945312	953.8667602539062	-306.0419921875	803.970703125	656.284423828125	-345.8431396484375	752.6357421875	743.55517578125	-329.2849731445312	1190.158447265625	1366.164794921875	-260.9935302734375	1248.570678710938	1301.795288085938	-249.3274230957031	1296.700073242188	1042.604370117188	-261.8417053222656	1204.408813476562	1028.8134765625	-246.1913299560547	1283.356689453125	846.8147583007812	-417.7312316894531	1341.042236328125	832.6585693359375	-373.6792297363281	1316.664916992188	981.11669921875	-293.1853942871094	1299.593139648438	677.0924682617188	-443.7666625976562	1348.107055664062	747.05859375	-392.7073669433594	1127.765869140625	1575.265991210938	-238.2809448242188	973.6124267578125	1585.1611328125	-365.2308654785156	1097.318237304688	1593.517333984375	-368.1493225097656	968.6766967773438	1561.8828125	-218.0552368164062	860.0394287109375	938.3229370117188	-285.4505615234375	1219.69091796875	954.0848999023438	-316.0144348144531	1152.700805664062	963.8804321289062	-438.4763793945312	890.6115112304688	946.2655029296875	-403.5589904785156	860.8123168945312	462.1151428222656	-432.5411376953125	859.8676147460938	593.97314453125	-400.1374816894531	873.5364379882812	177.3598175048828	-79.69679260253906	853.4285888671875	307.0805358886719	-256.1086120605469	931.6376342773438	38.96496963500977	-235.6497955322266	860.0459594726562	86.67755889892578	-167.3160400390625	930.5247802734375	201.734619140625	-52.89662170410156	1183.550048828125	469.6250915527344	-444.4923095703125	1210.551025390625	735.1741333007812	-427.1269836425781	1139.905029296875	41.50774765014648	-438.1250915527344	1166.735595703125	345.8898620605469	-468.6363830566406	1069.7666015625	35.34967422485352	-615.2785034179688	1042.336669921875	39.65192794799805	-540.08642578125	1136.385986328125	9.708335876464844	-528.326904296875	1085.999755859375	28.13388252258301	-365.7663269042969	798.1124877929688	737.1856689453125	-375.2839965820312	1312.211547851562	747.9884643554688	-451.959716796875	962.8155517578125	89.37633514404297	-179.1205291748047	
460	4.59	1113.491577148438	961.6743774414062	-220.7456207275391	981.3325805664062	942.604736328125	-210.2019195556641	1048.806274414062	1031.940551757812	-209.8908538818359	1040.015991210938	1202.31396484375	-434.5585021972656	1044.592407226562	1133.755004882812	-195.9747619628906	1035.010375976562	1383.785034179688	-209.6451721191406	1041.391357421875	1315.799560546875	-370.9035949707031	1100.860473632812	1234.86376953125	-177.6578674316406	931.7536010742188	1347.0986328125	-199.4888458251953	882.1519775390625	1369.02001953125	-286.7126770019531	808.1151733398438	1254.1669921875	-269.4755249023438	777.6043701171875	1058.939819335938	-292.4459533691406	834.6065063476562	1034.4384765625	-231.6918640136719	822.2697143554688	836.6185913085938	-366.0523986816406	750.0830688476562	832.30615234375	-324.4013366699219	763.7354736328125	954.7734985351562	-305.6426391601562	805.761962890625	656.915771484375	-344.9422912597656	754.433349609375	744.0904541015625	-327.3748779296875	1192.928100585938	1366.982666015625	-266.7905578613281	1251.493530273438	1302.638305664062	-255.7344207763672	1300.743530273438	1043.710693359375	-270.9388732910156	1208.5615234375	1029.269287109375	-254.8284454345703	1287.32275390625	850.6284790039062	-430.119384765625	1345.316284179688	836.0718383789062	-386.6605529785156	1320.710327148438	982.8135375976562	-303.3461303710938	1304.7353515625	681.578125	-459.7649536132812	1352.961303710938	750.9896240234375	-407.5486755371094	1130.846923828125	1576.133178710938	-244.533935546875	975.8428955078125	1585.827026367188	-370.5002746582031	1099.60400390625	1594.1962890625	-374.3041076660156	971.8201293945312	1562.898071289062	-223.2498779296875	861.9597778320312	939.1748046875	-291.0665588378906	1221.447998046875	953.7339477539062	-320.51611328125	1155.0888671875	964.5259399414062	-443.4467163085938	893.1761474609375	947.5781860351562	-408.4087524414062	861.5397338867188	464.6919250488281	-442.0426330566406	861.5026245117188	595.8355712890625	-407.9346313476562	877.046142578125	174.1835021972656	-94.00919342041016	855.3555297851562	307.2135620117188	-267.758544921875	930.6279296875	40.06259536743164	-255.3935394287109	861.5617065429688	86.59047698974609	-184.1717529296875	935.0194702148438	196.8615570068359	-67.28582000732422	1184.662475585938	469.3875427246094	-446.6460571289062	1212.099731445312	735.237060546875	-431.5105285644531	1139.924194335938	41.49835205078125	-438.1249084472656	1167.637573242188	345.7781982421875	-470.1605834960938	1069.873168945312	35.36893081665039	-615.3326416015625	1042.421630859375	39.74223709106445	-540.1417236328125	1136.57470703125	10.17931461334229	-528.2201538085938	1085.91015625	28.25483512878418	-365.766845703125	799.1408081054688	737.836181640625	-374.1708068847656	1316.767578125	752.6188354492188	-466.4512023925781	963.2800903320312	87.97109222412109	-197.6026611328125	
